REM SINGLE-DENSITY AREA
FILE "cs (0,1).bin" BINARY
  TRACK 01 MODE1/2352
    INDEX 01 00:00:00
FILE "cs02.raw" BINARY
  TRACK 02 AUDIO
    INDEX 00 00:00:00
    INDEX 01 00:02:00
REM HIGH-DENSITY AREA
FILE "cs03.bin" BINARY
  TRACK 03 MODE1/2352
    INDEX 01 00:00:00
